<svg xmlns="http://www.w3.org/2000/svg" width="16" height="16" viewBox="0 0 16 16"><path style="line-height:normal;text-indent:0;text-align:start;text-decoration-line:none;text-decoration-style:solid;text-decoration-color:#000;text-transform:none;block-progression:tb;white-space:normal;isolation:auto;mix-blend-mode:normal;solid-color:#000;solid-opacity:1" d="M 8.5 1 C 4.3637867 1 1 4.3638 1 8.5 C 1 12.6362 4.3637867 16 8.5 16 C 12.636213 16 16 12.6362 16 8.5 C 16 4.3638 12.636213 1 8.5 1 z M 8.5 2 C 12.095773 2 15 4.9043 15 8.5 C 15 12.0958 12.095773 15 8.5 15 C 4.9042268 15 2 12.0958 2 8.5 C 2 8.2752687 2.0110541 8.0527738 2.0332031 7.8339844 C 2.3654391 4.5521429 5.1289626 2 8.5 2 z M 8.4921875 4.4941406 A 0.50005 0.50005 0 0 0 8 5 L 8 8 L 5 8 A 0.50005 0.50005 0 1 0 5 9 L 8 9 L 8 12 A 0.50005 0.50005 0 1 0 9 12 L 9 9 L 12 9 A 0.50005 0.50005 0 1 0 12 8 L 9 8 L 9 5 A 0.50005 0.50005 0 0 0 8.4921875 4.4941406 z " color="#000" enable-background="accumulate" font-family="sans-serif" font-weight="400" overflow="visible"/></svg>